<?xml version="1.0" encoding="utf-8"?><svg class="ldi-bj0ayh" width="100%" height="100%" xmlns="http://www.w3.org/2000/svg" xmlns:xlink="http://www.w3.org/1999/xlink" viewBox="0 0 100 100" preserveAspectRatio="xMidYMid" style="width:200px;webkit-user-select:none;webkit-transform-origin:100px 100px;webkit-perspective-origin:100px 100px;webkit-logical-width:200px;webkit-logical-height:200px;user-select:none;transform-origin:100px 100px;r:0px;pointer-events:all;perspective-origin:100px 100px;overflow-y:hidden;overflow-x:hidden;overflow:hidden;inline-size:200px;height:200px;display:block;d:none;block-size:200px;background:rgba(0, 0, 0, 0) none repeat scroll 0% 0% / auto padding-box border-box" ><svg version="1.1" id="圖層_1" xmlns="http://www.w3.org/2000/svg" xmlns:xlink="http://www.w3.org/1999/xlink" x="0px" y="0px" viewBox="0 0 100 100" xml:space="preserve" class="" style="x:0px;webkit-user-select:none;webkit-transform-origin:50px 50px;webkit-perspective-origin:0px 0px;user-select:none;transform-origin:50px 50px;transform:none;r:0px;pointer-events:all;perspective-origin:0px 0px;overflow-y:hidden;overflow-x:hidden;overflow:hidden;display:block" ><g class="" style="x:0px;webkit-user-select:none;webkit-transform-origin:50px 50px;webkit-perspective-origin:0px 0px;user-select:none;transform-origin:50px 50px;transform:none;r:0px;pointer-events:all;perspective-origin:0px 0px" ><g class="" style="x:0px;webkit-user-select:none;webkit-transform-origin:50px 50px;webkit-transform:matrix(0.6, 0, 0, 0.6, 0, 0);webkit-perspective-origin:0px 0px;user-select:none;transform-origin:50px 50px;transform:matrix(0.6, 0, 0, 0.6, 0, 0);r:0px;pointer-events:all;perspective-origin:0px 0px" ><g class="" style="x:0px;webkit-user-select:none;webkit-transform-origin:50px 50px;webkit-perspective-origin:0px 0px;user-select:none;transform-origin:50px 50px;transform:none;r:0px;pointer-events:all;perspective-origin:0px 0px" ><g class="" style="webkit-user-select:none;webkit-perspective-origin:0px 0px;user-select:none;pointer-events:all;perspective-origin:0px 0px" ><style type="text/css" class="ld " style="y:0px;x:0px;webkit-user-select:none;webkit-transform-origin:50px 50px;webkit-animation-duration:1s;webkit-animation-delay:-1s;webkit-animation:none 1s ease -1s 1 normal none running;user-select:none;transform-origin:50px 50px;transform:none;r:0px;pointer-events:all;direction:ltr;d:none" >.st0{fill:#D1D1D1;} .st1{fill:#454545;} .st2{fill:#464646;} .st3{fill:#FFFFFF;}</style>
<g class="ld " style="y:0px;x:0px;webkit-user-select:none;webkit-transform-origin:50px 50px;webkit-perspective-origin:0px 0px;webkit-animation-duration:1s;webkit-animation-delay:-0.923077s;webkit-animation:none 1s ease -0.923077s 1 normal none running;user-select:none;transform-origin:50px 50px;transform:none;r:0px;pointer-events:all;perspective-origin:0px 0px;direction:ltr;d:none" ><path class="st0" d="M91.412,43.89c1.908-4.279,1.205-9.664-1.773-13.568c0.574-4.674-1.463-9.404-5.25-12.259 c-0.027-4.584-2.497-7.146-7.949-8.412c-2.568-0.595-5.218-0.885-8.104-0.885c-0.74,0-1.51,0.019-2.299,0.059 c-5.161,0.255-9.236,0.457-14.781,1.34c-0.31,0.049-0.659,0.1-1.033,0.155c-3.37,0.491-8.879,1.298-12.447,4.405 c-0.651-0.856-1.847-1.847-3.964-2.086c-0.027-0.003-7.748-0.724-7.748-0.724c-0.743-0.097-1.486-0.196-2.229-0.296 c-1.741-0.232-3.54-0.472-5.326-0.686c-0.409-0.049-0.818-0.074-1.216-0.074c-4.325,0-7.641,2.867-8.446,7.302 c-1.928,10.58-1.784,21.689,0.426,33.019c1.02,5.235,5.039,8.619,10.239,8.619c0,0,0,0,0.001,0c0.449,0,0.909-0.026,1.366-0.077 c2.63-0.29,5.258-0.589,7.887-0.888l4.212-0.477c1.167-0.132,3.12-0.351,4.439-2.11c0.075-0.1,0.143-0.201,0.207-0.301 c0.395,0.214,0.8,0.377,1.195,0.477c1.153,0.297,1.554,0.701,1.818,1.097c0.373,0.559,0.751,1.087,1.117,1.597 c0.238,0.332,0.476,0.664,0.713,1.007c1.962,2.828,4.402,5.19,7.461,7.218c4.605,3.052,8.002,7.443,10.471,11.005 c0.023,0.11,0.049,0.25,0.071,0.363c0.035,0.182,0.069,0.361,0.107,0.54c0.206,0.959,0.376,1.923,0.504,2.868 c0.87,6.297,5.383,9.116,9.469,9.116c1.617,0,3.255-0.426,4.737-1.23c3.885-2.109,4.558-4.978,5.151-7.508 c0.047-0.201,0.096-0.408,0.149-0.625c1.415-5.863,0.203-13.564-2.879-18.314c-0.537-0.825-1.049-1.666-1.563-2.53 c0.445-0.094,0.878-0.181,1.302-0.259c0.644-0.119,1.332-0.192,2.06-0.271c1.44-0.155,3.073-0.33,4.794-0.907 c3.541-1.188,6.175-3.515,7.418-6.553C92.859,50.235,92.748,47.027,91.412,43.89z" fill="none" style="webkit-user-select:none;webkit-perspective-origin:0px 0px;user-select:none;pointer-events:all;perspective-origin:0px 0px;fill:none;d:path('M 91.412 43.89 C 93.32 39.611 92.617 34.226 89.639 30.322 C 90.213 25.648 88.176 20.918 84.389 18.063 C 84.362 13.479 81.892 10.917 76.44 9.651 C 73.872 9.056 71.222 8.766 68.336 8.766 C 67.596 8.766 66.826 8.785 66.037 8.825 C 60.876 9.08 56.801 9.282 51.256 10.165 C 50.946 10.214 50.597 10.265 50.223 10.32 C 46.853 10.811 41.344 11.618 37.776 14.725 C 37.125 13.869 35.929 12.878 33.812 12.639 C 33.785 12.636 26.064 11.915 26.064 11.915 C 25.321 11.818 24.578 11.719 23.835 11.619 C 22.094 11.387 20.295 11.147 18.509 10.933 C 18.1 10.884 17.691 10.859 17.293 10.859 C 12.968 10.859 9.652 13.726 8.847 18.161 C 6.919 28.741 7.063 39.85 9.27299 51.18 C 10.293 56.415 14.312 59.799 19.512 59.799 C 19.512 59.799 19.512 59.799 19.513 59.799 C 19.962 59.799 20.422 59.773 20.879 59.722 C 23.509 59.432 26.137 59.133 28.766 58.834 L 32.978 58.357 C 34.145 58.225 36.098 58.006 37.417 56.247 C 37.492 56.147 37.56 56.046 37.624 55.946 C 38.019 56.16 38.424 56.323 38.819 56.423 C 39.972 56.72 40.373 57.124 40.637 57.52 C 41.01 58.079 41.388 58.607 41.754 59.117 C 41.992 59.449 42.23 59.781 42.467 60.124 C 44.429 62.952 46.869 65.314 49.928 67.342 C 54.533 70.394 57.93 74.785 60.399 78.347 C 60.422 78.457 60.448 78.597 60.47 78.71 C 60.505 78.892 60.539 79.071 60.577 79.25 C 60.783 80.209 60.953 81.173 61.081 82.118 C 61.951 88.415 66.464 91.234 70.55 91.234 C 72.167 91.234 73.805 90.808 75.287 90.004 C 79.172 87.895 79.845 85.026 80.438 82.496 C 80.485 82.295 80.534 82.088 80.587 81.871 C 82.002 76.008 80.79 68.307 77.708 63.557 C 77.171 62.732 76.659 61.891 76.145 61.027 C 76.59 60.933 77.023 60.846 77.447 60.768 C 78.091 60.649 78.779 60.576 79.507 60.497 C 80.947 60.342 82.58 60.167 84.301 59.59 C 87.842 58.402 90.476 56.075 91.719 53.037 C 92.859 50.235 92.748 47.027 91.412 43.89 Z')" ></path></g>
<g class="ld " style="y:0px;x:0px;webkit-user-select:none;webkit-transform-origin:50px 50px;webkit-perspective-origin:0px 0px;webkit-animation-duration:1s;webkit-animation-delay:-0.846154s;webkit-animation:none 1s ease -0.846154s 1 normal none running;user-select:none;transform-origin:50px 50px;transform:none;r:0px;pointer-events:all;perspective-origin:0px 0px;direction:ltr;d:none" ><path class="st2" d="M85.775,32.274c2.654,2.908,3.282,7.36,1.448,10.554c-0.439,0.767-0.39,1.295-0.011,2.037 c2.382,4.68,0.713,9.055-4.257,10.722c-2.05,0.688-4.128,0.634-6.276,1.029c-2.207,0.407-4.565,1.02-6.951,1.46 c0.308,0.689,0.456,1.136,0.691,1.536c1.234,2.091,2.425,4.212,3.745,6.244c2.52,3.881,3.405,10.509,2.316,15.025 c-0.637,2.632-0.781,4.094-3.21,5.413c-3.277,1.781-7.314,0.273-8.009-4.753c-0.146-1.064-0.334-2.127-0.559-3.176 c-0.157-0.732-0.241-1.56-0.647-2.148c-3.272-4.754-6.935-9.171-11.797-12.393c-2.503-1.66-4.621-3.65-6.324-6.104 c-0.59-0.853-1.212-1.681-1.787-2.542c-1.033-1.549-2.504-2.384-4.277-2.841c-0.388-0.098-0.918-0.562-0.97-0.919 c-0.567-3.821-1.25-7.636-1.512-11.479c-0.449-6.589-0.301-14.218,1.507-19.607c1.592-4.747,9.522-5.438,13.027-5.997 c5.321-0.847,9.228-1.04,14.334-1.293c3.099-0.154,6.15,0.008,9.232,0.723c4.472,1.038,5.004,2.465,4.582,5.83 c0.044,0.436,0.436,0.991,0.827,1.213c3.372,1.923,5.257,5.967,4.418,9.789C85.158,31.303,85.291,31.744,85.775,32.274z" fill="#ffffff" style="webkit-user-select:none;webkit-perspective-origin:0px 0px;user-select:none;r:0px;pointer-events:all;perspective-origin:0px 0px;fill:rgb(255, 255, 255);d:path('M 85.775 32.274 C 88.429 35.182 89.057 39.634 87.223 42.828 C 86.784 43.595 86.833 44.123 87.212 44.865 C 89.594 49.545 87.925 53.92 82.955 55.587 C 80.905 56.275 78.827 56.221 76.679 56.616 C 74.472 57.023 72.114 57.636 69.728 58.076 C 70.036 58.765 70.184 59.212 70.419 59.612 C 71.653 61.703 72.844 63.824 74.164 65.856 C 76.684 69.737 77.569 76.365 76.48 80.881 C 75.843 83.513 75.699 84.975 73.27 86.294 C 69.993 88.075 65.956 86.567 65.261 81.541 C 65.115 80.477 64.927 79.414 64.702 78.365 C 64.545 77.633 64.461 76.805 64.055 76.217 C 60.783 71.463 57.12 67.046 52.258 63.824 C 49.755 62.164 47.637 60.174 45.934 57.72 C 45.344 56.867 44.722 56.039 44.147 55.178 C 43.114 53.629 41.643 52.794 39.87 52.337 C 39.482 52.239 38.952 51.775 38.9 51.418 C 38.333 47.597 37.65 43.782 37.388 39.939 C 36.939 33.35 37.087 25.721 38.895 20.332 C 40.487 15.585 48.417 14.894 51.922 14.335 C 57.243 13.488 61.15 13.295 66.256 13.042 C 69.355 12.888 72.406 13.05 75.488 13.765 C 79.96 14.803 80.492 16.23 80.07 19.595 C 80.114 20.031 80.506 20.586 80.897 20.808 C 84.269 22.731 86.154 26.775 85.315 30.597 C 85.158 31.303 85.291 31.744 85.775 32.274 Z')" ></path></g>
<g class="ld " style="y:0px;x:0px;webkit-user-select:none;webkit-transform-origin:50px 50px;webkit-perspective-origin:0px 0px;webkit-animation-duration:1s;webkit-animation-delay:-0.769231s;webkit-animation:none 1s ease -0.769231s 1 normal none running;user-select:none;transform-origin:50px 50px;transform:none;r:0px;pointer-events:all;perspective-origin:0px 0px;direction:ltr;d:none" ><path class="st2" d="M33.339,16.834l-7.746-0.723c-2.528-0.331-5.055-0.683-7.588-0.985c-2.658-0.319-4.521,1.121-5.006,3.794 c-1.915,10.512-1.624,20.997,0.417,31.455c0.697,3.579,3.398,5.553,6.998,5.153c4.031-0.446,8.06-0.91,12.09-1.364 c1.727-0.195,1.834-0.312,1.541-2.004c-1.952-11.285-2.365-22.55,0.456-33.771C34.762,17.348,34.365,16.949,33.339,16.834z M25.304,50.379c-1.573,0.033-2.876-1.215-2.91-2.788c-0.034-1.573,1.215-2.876,2.788-2.91c1.573-0.034,2.876,1.214,2.91,2.788 C28.126,49.043,26.878,50.345,25.304,50.379z" fill="#ffffff" style="webkit-user-select:none;webkit-perspective-origin:0px 0px;user-select:none;r:0px;pointer-events:all;perspective-origin:0px 0px;fill:rgb(255, 255, 255);d:path('M 33.339 16.834 L 25.593 16.111 C 23.065 15.78 20.538 15.428 18.005 15.126 C 15.347 14.807 13.484 16.247 12.999 18.92 C 11.084 29.432 11.375 39.917 13.416 50.375 C 14.113 53.954 16.814 55.928 20.414 55.528 C 24.445 55.082 28.474 54.618 32.504 54.164 C 34.231 53.969 34.338 53.852 34.045 52.16 C 32.093 40.875 31.68 29.61 34.501 18.389 C 34.762 17.348 34.365 16.949 33.339 16.834 Z M 25.304 50.379 C 23.731 50.412 22.428 49.164 22.394 47.591 C 22.36 46.018 23.609 44.715 25.182 44.681 C 26.755 44.647 28.058 45.895 28.092 47.469 C 28.126 49.043 26.878 50.345 25.304 50.379 Z')" ></path></g>
<metadata xmlns:d="https://loading.io/stock/" class="ld " style="y:0px;x:0px;webkit-user-select:none;webkit-transform-origin:50px 50px;webkit-animation-duration:1s;webkit-animation-delay:-0.692308s;webkit-animation:none 1s ease -0.692308s 1 normal none running;user-select:none;transform-origin:50px 50px;transform:none;r:0px;pointer-events:all;direction:ltr;d:none" ><d:name class="ld " style="y:0px;x:0px;webkit-user-select:none;webkit-transform-origin:50px 50px;webkit-animation-duration:1s;webkit-animation-delay:-0.615385s;webkit-animation:none 1s ease -0.615385s 1 normal none running;user-select:none;transform-origin:50px 50px;transform:none;r:0px;pointer-events:all;direction:ltr;d:none" >dislike</d:name>


<d:tags class="ld " style="y:0px;x:0px;webkit-user-select:none;webkit-transform-origin:50px 50px;webkit-animation-duration:1s;webkit-animation-delay:-0.538462s;webkit-animation:none 1s ease -0.538462s 1 normal none running;user-select:none;transform-origin:50px 50px;transform:none;r:0px;pointer-events:all;direction:ltr;d:none" >thumb,fail,bad,suck,hate,hand,dislike,map</d:tags>


<d:license class="ld " style="y:0px;x:0px;webkit-user-select:none;webkit-transform-origin:50px 50px;webkit-animation-duration:1s;webkit-animation-delay:-0.461538s;webkit-animation:none 1s ease -0.461538s 1 normal none running;user-select:none;transform-origin:50px 50px;transform:none;r:0px;pointer-events:all;direction:ltr;d:none" >cc0</d:license>


<d:slug class="ld " style="y:0px;x:0px;webkit-user-select:none;webkit-transform-origin:50px 50px;webkit-animation-duration:1s;webkit-animation-delay:-0.384615s;webkit-animation:none 1s ease -0.384615s 1 normal none running;user-select:none;transform-origin:50px 50px;transform:none;r:0px;pointer-events:all;direction:ltr;d:none" >bj0ayh</d:slug></metadata></g></g></g></g>
<style type="text/css" class="ld " style="y:0px;x:0px;webkit-user-select:none;webkit-transform-origin:50px 50px;webkit-animation-duration:1s;webkit-animation-delay:-0.307692s;webkit-animation:none 1s ease -0.307692s 1 normal none running;user-select:none;transform-origin:50px 50px;transform:none;r:0px;pointer-events:all;direction:ltr;d:none" >@keyframes ld-fade {
  0% {
    opacity: 1;
  }
  100% {
    opacity: 0;
  }
}
@-webkit-keyframes ld-fade {
  0% {
    opacity: 1;
  }
  100% {
    opacity: 0;
  }
}
.ld.ld-fade {
  -webkit-animation: ld-fade 1s infinite linear;
  animation: ld-fade 1s infinite linear;
}</style></svg></svg>