<?xml version="1.0" encoding="utf-8"?>
<svg xmlns="http://www.w3.org/2000/svg" style="margin: auto; background: rgb(20, 20, 20); display: block; shape-rendering: auto;" width="600" height="250" preserveAspectRatio="xMidYMid">
<style type="text/css">
  text {
    text-anchor: middle; font-size: 151px; opacity: 0;
  }
</style>
<g transform="translate(300,125)">
  <g transform="translate(0,0)"><g class="path" style="transform-origin: -235.715px 6.04485px 0px; transform: scale(0.91); animation: breath-b001bd5d-0813-4f56-b0f6-a9d625835d25 0.980392s linear -0.566176s infinite normal forwards running;"><path d="M48.47-40.02L48.47-40.02L48.47-40.02Q45.30-43.19 45.30-47.72L45.30-47.72L45.30-47.72Q45.30-52.25 48.47-55.49L48.47-55.49L48.47-55.49Q51.64-58.74 55.64-58.74L55.64-58.74L55.64-58.74Q59.64-58.74 62.44-56.70L62.44-56.70L62.44-56.70Q65.23-54.66 66.44-51.49L66.44-51.49L66.44-51.49Q66.59-51.34 66.59-51.19L66.59-51.19L66.59-51.04L66.59-51.04Q68.40-47.11 68.40-39.64L68.40-39.64L68.40-39.64Q68.40-32.16 66.67-25.97L66.67-25.97L66.67-25.97Q64.93-19.78 61.38-13.36L61.38-13.36L61.38-13.36Q57.83-6.95 51.04-2.79L51.04-2.79L51.04-2.79Q44.24 1.36 35.03 1.36L35.03 1.36L35.03 1.36Q25.82 1.36 19.71-4.68L19.71-4.68L19.71-4.68Q13.59-10.72 13.59-18.57L13.59-18.57L13.59-18.57Q13.59-26.43 16.38-37.98L16.38-37.98L16.38-37.98Q19.18-49.53 19.48-55.72L19.48-55.72L19.48-55.72Q17.06-55.57 14.80-53.98L14.80-53.98L14.80-53.98Q12.53-52.40 11.48-50.89L11.48-50.89L10.42-49.38L8.15-51.19L8.15-51.19Q8.61-52.09 9.51-53.30L9.51-53.30L9.51-53.30Q10.42-54.51 14.12-56.63L14.12-56.63L14.12-56.63Q17.82-58.74 23.40-58.74L23.40-58.74L23.40-58.74Q28.99-58.74 32.39-55.11L32.39-55.11L32.39-55.11Q35.79-51.49 35.79-45.90L35.79-45.90L35.79-45.90Q35.79-40.32 32.77-28.61L32.77-28.61L32.77-28.61Q29.75-16.91 29.75-12.16L29.75-12.16L29.75-12.16Q29.75-7.40 31.94-4.68L31.94-4.68L31.94-4.68Q34.13-1.96 38.20-1.96L38.20-1.96L38.20-1.96Q48.32-1.96 56.63-12.99L56.63-12.99L56.63-12.99Q64.93-24.01 64.93-37.60L64.93-37.60L64.93-37.60Q64.93-38.66 64.63-40.77L64.63-40.77L64.63-40.77Q61.46-36.84 56.55-36.84L56.55-36.84L56.55-36.84Q51.64-36.84 48.47-40.02" fill="#1aafd0" stroke="none" stroke-width="none" transform="translate(-273.989990234375,34.73485191345215)" style="fill: rgb(59, 232, 176);"></path></g><g class="path" style="transform-origin: -183.165px 6.04485px 0px; transform: scale(0.91); animation: breath-b001bd5d-0813-4f56-b0f6-a9d625835d25 0.980392s linear -0.485294s infinite normal forwards running;"><path d="M103.44-4.08L103.44-4.08Q98.91 1.36 92.11 1.36L92.11 1.36L92.11 1.36Q85.31 1.36 81.46-2.11L81.46-2.11L81.46-2.11Q77.61-5.59 77.61-11.17L77.61-11.17L77.61-11.17Q77.61-13.14 80.03-27.63L80.03-27.63L85.01-54.66L78.67-54.66L78.97-57.38L85.47-57.38L85.47-57.38Q96.64-57.38 101.92-58.29L101.92-58.29L104.04-58.74L93.62-1.66L93.62-1.66Q98.15-2.11 101.17-5.89L101.17-5.89L103.44-4.08" fill="#1aafd0" stroke="none" stroke-width="none" transform="translate(-273.989990234375,34.73485191345215)" style="fill: rgb(26, 175, 208);"></path></g><g class="path" style="transform-origin: -176.065px -46.2751px 0px; transform: scale(0.91); animation: breath-b001bd5d-0813-4f56-b0f6-a9d625835d25 0.980392s linear -0.404412s infinite normal forwards running;"><path d="M90.15-73.23L90.15-73.23L90.15-73.23Q86.98-76.41 86.98-80.94L86.98-80.94L86.98-80.94Q86.98-85.47 90.15-88.71L90.15-88.71L90.15-88.71Q93.32-91.96 97.85-91.96L97.85-91.96L97.85-91.96Q102.38-91.96 105.62-88.71L105.62-88.71L105.62-88.71Q108.87-85.47 108.87-80.94L108.87-80.94L108.87-80.94Q108.87-76.41 105.62-73.23L105.62-73.23L105.62-73.23Q102.38-70.06 97.85-70.06L97.85-70.06L97.85-70.06Q93.32-70.06 90.15-73.23" fill="#1aafd0" stroke="none" stroke-width="none" transform="translate(-273.989990234375,34.73485191345215)" style="fill: rgb(106, 103, 206);"></path></g><g class="path" style="transform-origin: -89.39px -6.26015px 0px; transform: scale(0.91); animation: breath-b001bd5d-0813-4f56-b0f6-a9d625835d25 0.980392s linear -0.323529s infinite normal forwards running;"><path d="M235.41-7.85L235.41-7.85Q228.31 0.45 216.31 5.44L216.31 5.44L216.31 5.44Q204.30 10.42 191.69 10.42L191.69 10.42L191.69 10.42Q179.09 10.42 170.33 8.00L170.33 8.00L170.33 8.00Q159.91 15.40 148.13 15.40L148.13 15.40L148.13 12.53L148.13 12.53Q154.02 12.38 156.66 10.95L156.66 10.95L156.66 10.95Q159.31 9.51 161.27 4.83L161.27 4.83L161.27 4.83Q153.42 1.36 147.53-4.00L147.53-4.00L147.53-4.00Q141.64-9.36 139.60-12.68L139.60-12.68L139.60-12.68Q137.56-16.01 137.56-16.61L137.56-16.61L140.28-17.67L140.28-17.67Q140.28-17.06 142.17-14.04L142.17-14.04L142.17-14.04Q144.05-11.02 149.57-5.96L149.57-5.96L149.57-5.96Q155.08-0.91 162.32 2.27L162.32 2.27L162.32 2.27Q164.44-3.02 165.80-10.87L165.80-10.87L179.24-88.49L179.24-88.49Q163.53-87.28 151.45-82.30L151.45-82.30L151.45-82.30Q161.72-71.42 161.72-56.32L161.72-56.32L161.72-56.32Q161.72-42.43 154.25-34.05L154.25-34.05L154.25-34.05Q146.77-25.67 137.71-25.67L137.71-25.67L137.71-25.67Q128.65-25.67 123.82-31.18L123.82-31.18L123.82-31.18Q118.99-36.69 118.99-44.24L118.99-44.24L118.99-44.24Q118.99-56.02 125.63-66.36L125.63-66.36L125.63-66.36Q132.28-76.71 146.17-83.35L146.17-83.35L146.17-83.35Q136.20-91.81 119.89-94.53L119.89-94.53L120.50-97.39L120.50-97.39Q138.77-94.07 149.04-84.56L149.04-84.56L149.04-84.56Q167.31-91.96 193.66-91.96L193.66-91.96L193.66-91.96Q220.01-91.96 235.11-79.95L235.11-79.95L235.11-79.95Q250.21-67.95 250.21-46.51L250.21-46.51L250.21-46.51Q250.21-24.61 235.41-7.85L235.41-7.85zM189.20 7.70L189.20 7.70L189.20 7.70Q203.55 7.70 215.02 2.94L215.02 2.94L215.02 2.94Q226.50-1.81 233.30-9.66L233.30-9.66L233.30-9.66Q247.34-25.67 247.34-45.53L247.34-45.53L247.34-45.53Q247.34-65.38 234.35-76.56L234.35-76.56L234.35-76.56Q221.37-87.73 198.11-88.94L198.11-88.94L198.11-88.94Q190.71-38.96 186.49-17.06L186.49-17.06L186.49-17.06Q183.77-3.17 173.20 5.89L173.20 5.89L173.20 5.89Q181.20 7.70 189.20 7.70zM121.86-44.24L121.86-44.24L121.86-44.24Q121.86-38.05 125.86-33.30L125.86-33.30L125.86-33.30Q129.86-28.54 137.79-28.54L137.79-28.54L137.79-28.54Q145.72-28.54 151.75-35.48L151.75-35.48L151.75-35.48Q157.79-42.43 158.70-53.15L158.70-53.15L158.70-53.15Q158.85-55.11 158.85-57.08L158.85-57.08L158.85-57.08Q158.85-70.67 148.43-81.09L148.43-81.09L148.43-81.09Q134.84-74.90 128.35-65.16L128.35-65.16L128.35-65.16Q121.86-55.42 121.86-44.24" fill="#1aafd0" stroke="none" stroke-width="none" transform="translate(-273.989990234375,34.73485191345215)" style="fill: rgb(255, 185, 0);"></path></g><g class="path" style="transform-origin: 12.91px 5.36485px 0px; transform: scale(0.91); animation: breath-b001bd5d-0813-4f56-b0f6-a9d625835d25 0.980392s linear -0.242647s infinite normal forwards running;"><path d="M261.68-51.49L259.42-53.30L259.42-53.30Q263.95-58.74 270.82-58.74L270.82-58.74L270.82-58.74Q277.69-58.74 281.46-55.27L281.46-55.27L281.46-55.27Q285.24-51.79 285.24-45.45L285.24-45.45L285.24-44.55L285.24-44.55Q292.03-58.74 302.91-58.74L302.91-58.74L302.91-58.74Q314.53-58.74 314.53-46.66L314.53-46.66L314.53-46.66Q314.53-41.68 311.21-36.09L311.21-36.09L311.21-36.09Q307.89-30.50 304.57-25.44L304.57-25.44L304.57-25.44Q301.25-20.38 301.25-16.46L301.25-16.46L297.62-16.46L297.62-16.46Q297.62-22.05 304.11-31.56L304.11-31.56L304.11-31.56Q310.61-41.07 310.61-46.28L310.61-46.28L310.61-46.28Q310.61-51.49 308.57-53.38L308.57-53.38L308.57-53.38Q306.53-55.27 302.53-55.27L302.53-55.27L302.53-55.27Q298.53-55.27 294.68-51.79L294.68-51.79L294.68-51.79Q290.83-48.32 288.26-43.03L288.26-43.03L288.26-43.03Q284.18-35.18 282.82-30.20L282.82-30.20L282.82-30.05L277.39 0L259.27 0L269.23-55.72L269.23-55.72Q264.70-55.27 261.68-51.49L261.68-51.49" fill="#1aafd0" stroke="none" stroke-width="none" transform="translate(-273.989990234375,34.73485191345215)" style="fill: rgb(252, 99, 107);"></path></g><g class="path" style="transform-origin: 69.685px 6.04485px 0px; transform: scale(0.91); animation: breath-b001bd5d-0813-4f56-b0f6-a9d625835d25 0.980392s linear -0.161765s infinite normal forwards running;"><path d="M350.32-58.74L350.32-58.74L350.32-58.74Q369.50-58.74 369.50-43.49L369.50-43.49L369.50-43.49Q369.50-33.98 360.51-29.07L360.51-29.07L360.51-29.07Q351.53-24.16 334.92-24.01L334.92-24.01L334.92-24.01Q334.62-18.57 334.62-15.40L334.62-15.40L334.62-15.40Q334.62-8.61 337.71-5.36L337.71-5.36L337.71-5.36Q340.81-2.11 345.49-2.11L345.49-2.11L345.49-2.11Q350.17-2.11 354.02-3.93L354.02-3.93L354.02-3.93Q357.87-5.74 360.13-8.23L360.13-8.23L360.13-8.23Q362.40-10.72 364.06-13.44L364.06-13.44L364.06-13.44Q367.08-18.42 367.08-19.78L367.08-19.78L369.80-18.57L369.80-18.57Q369.35-16.16 367.08-12.16L367.08-12.16L367.08-12.16Q364.82-8.15 362.10-5.59L362.10-5.59L362.10-5.59Q359.38-3.02 354.10-0.83L354.10-0.83L354.10-0.83Q348.81 1.36 342.32 1.36L342.32 1.36L342.32 1.36Q330.09 1.36 323.82-4.45L323.82-4.45L323.82-4.45Q317.55-10.27 317.55-20.38L317.55-20.38L317.55-20.38Q317.55-38.35 326.46-48.55L326.46-48.55L326.46-48.55Q335.37-58.74 350.32-58.74zM365.72-43.49L365.72-43.49Q365.72-48.47 362.78-51.72L362.78-51.72L362.78-51.72Q359.83-54.96 354.02-54.96L354.02-54.96L354.02-54.96Q348.21-54.96 342.69-48.02L342.69-48.02L342.69-48.02Q337.18-41.07 335.37-27.48L335.37-27.48L335.37-27.48Q365.72-27.63 365.72-43.49L365.72-43.49" fill="#1aafd0" stroke="none" stroke-width="none" transform="translate(-273.989990234375,34.73485191345215)" style="fill: rgb(59, 232, 176);"></path></g><g class="path" style="transform-origin: 136.275px 6.04485px 0px; transform: scale(0.91); animation: breath-b001bd5d-0813-4f56-b0f6-a9d625835d25 0.980392s linear -0.0808824s infinite normal forwards running;"><path d="M430.95 1.36L430.95 1.36L430.95 1.36Q417.67 1.36 416.46-10.27L416.46-10.27L416.46-10.27Q409.81 1.36 399.70 1.36L399.70 1.36L399.70 1.36Q389.58 1.36 383.62-4.76L383.62-4.76L383.62-4.76Q377.65-10.87 377.65-21.89L377.65-21.89L377.65-21.89Q377.65-39.11 386.11-48.92L386.11-48.92L386.11-48.92Q394.56-58.74 408.00-58.74L408.00-58.74L408.00-58.74Q419.03-58.74 422.65-48.32L422.65-48.32L422.65-48.32Q423.40-52.85 424.31-57.38L424.31-57.38L424.31-57.38Q435.48-57.38 440.92-58.29L440.92-58.29L442.88-58.74L432.46-1.66L432.46-1.66Q436.99-2.11 440.01-5.89L440.01-5.89L442.28-4.08L442.28-4.08Q437.75 1.36 430.95 1.36zM394.71-14.19L394.71-14.19Q394.71-7.40 396.45-4.76L396.45-4.76L396.45-4.76Q398.19-2.11 401.81-2.11L401.81-2.11L401.81-2.11Q405.44-2.11 409.21-6.04L409.21-6.04L409.21-6.04Q414.19-11.17 417.21-19.03L417.21-19.03L417.21-19.03Q417.67-20.99 418.95-28.46L418.95-28.46L418.95-28.46Q420.23-35.94 421.14-40.77L421.14-40.77L421.14-40.77Q420.69-46.51 417.97-50.74L417.97-50.74L417.97-50.74Q415.25-54.96 411.17-54.96L411.17-54.96L411.17-54.96Q403.77-54.96 399.24-41.75L399.24-41.75L399.24-41.75Q394.71-28.54 394.71-14.19L394.71-14.19" fill="#1aafd0" stroke="none" stroke-width="none" transform="translate(-273.989990234375,34.73485191345215)" style="fill: rgb(26, 175, 208);"></path></g><g class="path" style="transform-origin: 229.895px 6.04485px 0px; transform: scale(0.91); animation: breath-b001bd5d-0813-4f56-b0f6-a9d625835d25 0.980392s linear 0s infinite normal forwards running;"><path d="M508.27-1.66L508.27-1.66L508.27-1.66Q511.89-1.66 515.82-5.89L515.82-5.89L518.08-4.08L518.08-4.08Q517.02-1.96 513.40-0.30L513.40-0.30L513.40-0.30Q509.78 1.36 505.40 1.36L505.40 1.36L505.40 1.36Q491.66 1.36 491.66-11.02L491.66-11.02L491.66-11.02Q491.66-16.31 494.37-29.90L494.37-29.90L494.37-29.90Q497.09-43.49 497.09-47.72L497.09-47.72L497.09-47.72Q497.09-54.21 490.90-54.21L490.90-54.21L490.90-54.21Q481.54-54.21 475.20-30.20L475.20-30.20L469.76 0L451.64 0L461.61-55.72L461.61-55.72Q457.08-55.27 454.06-51.49L454.06-51.49L451.79-53.30L451.79-53.30Q456.32-58.74 463.19-58.74L463.19-58.74L463.19-58.74Q470.06-58.74 473.84-55.27L473.84-55.27L473.84-55.27Q477.61-51.79 477.61-45.45L477.61-45.45L477.61-45.00L477.61-45.00Q483.50-58.74 495.43-58.74L495.43-58.74L495.43-58.74Q503.89-58.74 508.79-54.13L508.79-54.13L508.79-54.13Q513.70-49.53 514.15-41.22L514.15-41.22L514.15-41.22Q517.02-49.53 521.40-54.13L521.40-54.13L521.40-54.13Q525.78-58.74 534.09-58.74L534.09-58.74L534.09-58.74Q542.39-58.74 547.38-53.68L547.38-53.68L547.38-53.68Q552.36-48.62 552.36-39.71L552.36-39.71L552.36-39.71Q552.36-35.03 549.49-21.67L549.49-21.67L549.49-21.67Q546.62-8.30 546.32-1.66L546.32-1.66L546.32-1.66Q549.94-1.66 553.87-5.89L553.87-5.89L556.13-4.08L556.13-4.08Q555.08-1.96 551.45-0.30L551.45-0.30L551.45-0.30Q547.83 1.36 543.45 1.36L543.45 1.36L543.45 1.36Q529.71 1.36 529.71-11.02L529.71-11.02L529.71-11.02Q529.71-16.31 532.43-29.90L532.43-29.90L532.43-29.90Q535.14-43.49 535.14-47.72L535.14-47.72L535.14-47.72Q535.14-54.21 528.95-54.21L528.95-54.21L528.95-54.21Q518.08-54.21 511.44-21.89L511.44-21.89L511.44-21.89Q508.57-8.15 508.27-1.66" fill="#1aafd0" stroke="none" stroke-width="none" transform="translate(-273.989990234375,34.73485191345215)" style="fill: rgb(106, 103, 206);"></path></g></g>
</g>
<style id="breath-b001bd5d-0813-4f56-b0f6-a9d625835d25" data-anikit="">@keyframes breath-b001bd5d-0813-4f56-b0f6-a9d625835d25
{
  0% {
    animation-timing-function: cubic-bezier(0.9647,0.2413,-0.0705,0.7911);
    transform: scale(0.9099999999999999);
  }
  51% {
    animation-timing-function: cubic-bezier(0.9226,0.2631,-0.0308,0.7628);
    transform: scale(1.02994);
  }
  100% {
    transform: scale(0.9099999999999999);
  }
}</style><style id="breath-b001bd5d-0813-4f56-b0f6-a9d625835d25" data-anikit="">@keyframes breath-b001bd5d-0813-4f56-b0f6-a9d625835d25
{
  0% {
    animation-timing-function: cubic-bezier(0.9647,0.2413,-0.0705,0.7911);
    transform: scale(0.9099999999999999);
  }
  51% {
    animation-timing-function: cubic-bezier(0.9226,0.2631,-0.0308,0.7628);
    transform: scale(1.02994);
  }
  100% {
    transform: scale(0.9099999999999999);
  }
}</style></svg>