<?xml version="1.0" encoding="utf-8"?><svg class="ldi-o9vgjs" width="100%" height="100%" xmlns="http://www.w3.org/2000/svg" xmlns:xlink="http://www.w3.org/1999/xlink" viewBox="0 0 100 100" preserveAspectRatio="xMidYMid" style="width:200px;webkit-user-select:none;webkit-transform-origin:100px 100px;webkit-perspective-origin:100px 100px;webkit-logical-width:200px;webkit-logical-height:200px;user-select:none;transform-origin:100px 100px;r:0px;pointer-events:all;perspective-origin:100px 100px;overflow-y:hidden;overflow-x:hidden;overflow:hidden;inline-size:200px;height:200px;display:block;d:none;block-size:200px;background:rgba(0, 0, 0, 0) none repeat scroll 0% 0% / auto padding-box border-box" ><svg version="1.1" id="圖層_1" xmlns="http://www.w3.org/2000/svg" xmlns:xlink="http://www.w3.org/1999/xlink" x="0px" y="0px" viewBox="0 0 100 100" xml:space="preserve" class="" style="x:0px;webkit-user-select:none;webkit-transform-origin:50px 50px;webkit-perspective-origin:0px 0px;user-select:none;transform-origin:50px 50px;transform:none;r:0px;pointer-events:all;perspective-origin:0px 0px;overflow-y:hidden;overflow-x:hidden;overflow:hidden;display:block" ><g class="" style="x:0px;webkit-user-select:none;webkit-transform-origin:50px 50px;webkit-perspective-origin:0px 0px;user-select:none;transform-origin:50px 50px;transform:none;r:0px;pointer-events:all;perspective-origin:0px 0px" ><g class="" style="x:0px;webkit-user-select:none;webkit-transform-origin:50px 50px;webkit-transform:matrix(0.6, 0, 0, 0.6, 0, 0);webkit-perspective-origin:0px 0px;user-select:none;transform-origin:50px 50px;transform:matrix(0.6, 0, 0, 0.6, 0, 0);r:0px;pointer-events:all;perspective-origin:0px 0px" ><g class="" style="x:0px;webkit-user-select:none;webkit-transform-origin:50px 50px;webkit-perspective-origin:0px 0px;user-select:none;transform-origin:50px 50px;transform:none;r:0px;pointer-events:all;perspective-origin:0px 0px" ><g class="" style="webkit-user-select:none;webkit-perspective-origin:0px 0px;user-select:none;pointer-events:all;perspective-origin:0px 0px" ><style type="text/css" class="ld " style="y:0px;x:0px;webkit-user-select:none;webkit-transform-origin:50px 50px;webkit-animation-duration:1s;webkit-animation-delay:-1s;webkit-animation:none 1s ease -1s 1 normal none running;user-select:none;transform-origin:50px 50px;transform:none;r:0px;pointer-events:all;direction:ltr;d:none" >.st0{fill:#D1D1D1;} .st1{fill:#454545;} .st2{fill:#464646;} .st3{fill:#474747;} .st4{fill:#494949;} .st5{fill:#D1D2D1;}</style>
<g class="ld " style="y:0px;x:0px;webkit-user-select:none;webkit-transform-origin:50px 50px;webkit-perspective-origin:0px 0px;webkit-animation-duration:1s;webkit-animation-delay:-0.916667s;webkit-animation:none 1s ease -0.916667s 1 normal none running;user-select:none;transform-origin:50px 50px;transform:none;r:0px;pointer-events:all;perspective-origin:0px 0px;direction:ltr;d:none" ><path class="st0" d="M23.014,92.5c-4.397,0-8.039-2.722-9.503-7.102c-3.554-10.629-5.09-21.304-4.566-31.73 c0.24-4.838,3.612-8.124,8.391-8.174c0.982-0.011,1.964-0.014,2.947-0.014c0.758,0,3.723,0.008,4.448,0.008 c0,0,7.523-0.278,7.549-0.279l0.149-0.001c1.269,0,2.232,0.323,2.95,0.746c0.596-0.627,1.309-1.104,2.013-1.372 c1.082-0.411,1.425-0.844,1.635-1.252c0.303-0.588,0.614-1.145,0.914-1.684c0.19-0.341,0.381-0.682,0.566-1.026 c1.587-2.945,3.685-5.488,6.417-7.776c4.115-3.447,6.916-8.053,8.908-11.753c0.011-0.109,0.022-0.246,0.03-0.358 c0.014-0.179,0.027-0.355,0.044-0.528c0.095-0.951,0.155-1.899,0.177-2.822c0.163-6.489,4.739-9.882,9.174-9.882 c1.245,0,2.481,0.245,3.675,0.73c3.978,1.615,4.938,4.31,5.785,6.688c0.067,0.187,0.136,0.382,0.21,0.584 c2,5.501,1.666,13.061-0.793,17.978c-0.428,0.855-0.832,1.722-1.234,2.612c0.439,0.042,0.867,0.079,1.285,0.109 c0.496,0.035,1.014,0.04,1.454,0.04l1.159-0.004c1.279,0,2.664,0.043,4.125,0.357c3.544,0.761,6.339,2.72,7.867,5.517 c1.41,2.58,1.65,5.693,0.702,8.856c2.304,3.919,2.211,9.193-0.239,13.282c1.062,4.45-0.393,9.235-3.734,12.396 c0.47,4.426-1.634,7.165-6.755,8.976c-3.011,1.066-6.262,1.696-9.939,1.926c-3.549,0.222-6.608,0.414-10.03,0.414l0,0 c-1.446,0-2.88-0.034-4.383-0.103c-0.305-0.014-0.645-0.025-1.014-0.037c-3.07-0.101-7.954-0.261-11.663-2.378 c-0.093,0.42-0.25,0.852-0.495,1.288c-1.048,1.859-2.899,2.317-4.006,2.591c-1.396,0.345-2.79,0.691-4.184,1.036 c-2.43,0.603-4.86,1.205-7.292,1.801C24.838,92.386,23.914,92.5,23.014,92.5L23.014,92.5z" fill="none" style="webkit-user-select:none;webkit-perspective-origin:0px 0px;user-select:none;pointer-events:all;perspective-origin:0px 0px;fill:none;d:path('M 23.014 92.5 C 18.617 92.5 14.975 89.778 13.511 85.398 C 9.957 74.769 8.421 64.094 8.945 53.668 C 9.185 48.83 12.557 45.544 17.336 45.494 C 18.318 45.483 19.3 45.48 20.283 45.48 C 21.041 45.48 24.006 45.488 24.731 45.488 C 24.731 45.488 32.254 45.21 32.28 45.209 L 32.429 45.208 C 33.698 45.208 34.661 45.531 35.379 45.954 C 35.975 45.327 36.688 44.85 37.392 44.582 C 38.474 44.171 38.817 43.738 39.027 43.33 C 39.33 42.742 39.641 42.185 39.941 41.646 C 40.131 41.305 40.322 40.964 40.507 40.62 C 42.094 37.675 44.192 35.132 46.924 32.844 C 51.039 29.397 53.84 24.791 55.832 21.091 C 55.843 20.982 55.854 20.845 55.862 20.733 C 55.876 20.554 55.889 20.378 55.906 20.205 C 56.001 19.254 56.061 18.306 56.083 17.383 C 56.246 10.894 60.822 7.501 65.257 7.501 C 66.502 7.501 67.738 7.746 68.932 8.231 C 72.91 9.846 73.87 12.541 74.717 14.919 C 74.784 15.106 74.853 15.301 74.927 15.503 C 76.927 21.004 76.593 28.564 74.134 33.481 C 73.706 34.336 73.302 35.203 72.9 36.093 C 73.339 36.135 73.767 36.172 74.185 36.202 C 74.681 36.237 75.199 36.242 75.639 36.242 L 76.798 36.238 C 78.077 36.238 79.462 36.281 80.923 36.595 C 84.467 37.356 87.262 39.315 88.79 42.112 C 90.2 44.692 90.44 47.805 89.492 50.968 C 91.796 54.887 91.703 60.161 89.253 64.25 C 90.315 68.7 88.86 73.485 85.519 76.646 C 85.989 81.072 83.885 83.811 78.764 85.622 C 75.753 86.688 72.502 87.318 68.825 87.548 C 65.276 87.77 62.217 87.962 58.795 87.962 L 58.795 87.962 C 57.349 87.962 55.915 87.928 54.412 87.859 C 54.107 87.845 53.767 87.834 53.398 87.822 C 50.328 87.721 45.444 87.561 41.735 85.444 C 41.642 85.864 41.485 86.296 41.24 86.732 C 40.192 88.591 38.341 89.049 37.234 89.323 C 35.838 89.668 34.444 90.014 33.05 90.359 C 30.62 90.962 28.19 91.564 25.758 92.16 C 24.838 92.386 23.914 92.5 23.014 92.5 L 23.014 92.5 Z')" ></path></g>
<g class="ld " style="y:0px;x:0px;webkit-user-select:none;webkit-transform-origin:50px 50px;webkit-perspective-origin:0px 0px;webkit-animation-duration:1s;webkit-animation-delay:-0.833333s;webkit-animation:none 1s ease -0.833333s 1 normal none running;user-select:none;transform-origin:50px 50px;transform:none;r:0px;pointer-events:all;perspective-origin:0px 0px;direction:ltr;d:none" ><path class="st2" d="M85.313,62.785c2.245-3.094,2.368-7.454,0.251-10.339c-0.507-0.692-0.518-1.207-0.233-1.963 c1.79-4.774-0.293-8.813-5.27-9.882c-2.052-0.441-4.052-0.163-6.166-0.312c-2.174-0.153-4.516-0.489-6.863-0.655 c0.221-0.698,0.316-1.146,0.5-1.557c0.964-2.151,1.882-4.324,2.935-6.43c2.009-4.017,2.147-10.506,0.606-14.744 c-0.898-2.471-1.197-3.866-3.684-4.875c-3.354-1.361-7.086,0.529-7.21,5.453c-0.025,1.043-0.092,2.088-0.196,3.127 c-0.072,0.724-0.064,1.531-0.391,2.141c-2.64,4.941-5.695,9.599-10.037,13.236c-2.235,1.872-4.063,4.022-5.439,6.575 c-0.477,0.886-0.986,1.754-1.448,2.648c-0.829,1.606-2.157,2.572-3.818,3.202c-0.363,0.138-0.825,0.641-0.836,0.991 c-0.132,3.746-0.377,7.501-0.214,11.238c0.282,6.405,1.252,13.748,3.581,18.752c2.051,4.407,9.776,4.213,13.218,4.372 c5.224,0.241,9.016,0.003,13.968-0.307c3.006-0.188,5.933-0.675,8.828-1.699c4.201-1.486,4.559-2.92,3.788-6.122 c-0.007-0.425,0.314-1.003,0.666-1.259c3.045-2.221,4.424-6.327,3.201-9.923C84.823,63.789,84.904,63.349,85.313,62.785z M37.48,83.222c-3.3-10.618-5.115-21.409-3.812-32.565c0.121-1.034-0.312-1.368-1.315-1.35l-7.547,0.28 c-2.475,0-4.951-0.021-7.428,0.007c-2.599,0.027-4.211,1.648-4.341,4.281c-0.52,10.36,1.08,20.415,4.36,30.226 c1.122,3.357,3.97,4.918,7.385,4.08c3.824-0.936,7.644-1.891,11.466-2.835C37.887,84.939,37.976,84.813,37.48,83.222z M28.678,77.195c1.841,0,3.334,1.493,3.334,3.334c0,1.842-1.493,3.335-3.334,3.335c-1.841,0-3.334-1.493-3.334-3.335 C25.344,78.688,26.836,77.195,28.678,77.195z" fill="#ffffff" style="webkit-user-select:none;webkit-perspective-origin:0px 0px;user-select:none;r:0px;pointer-events:all;perspective-origin:0px 0px;fill:rgb(255, 255, 255);d:path('M 85.313 62.785 C 87.558 59.691 87.681 55.331 85.564 52.446 C 85.057 51.754 85.046 51.239 85.331 50.483 C 87.121 45.709 85.038 41.67 80.061 40.601 C 78.009 40.16 76.009 40.438 73.895 40.289 C 71.721 40.136 69.379 39.8 67.032 39.634 C 67.253 38.936 67.348 38.488 67.532 38.077 C 68.496 35.926 69.414 33.753 70.467 31.647 C 72.476 27.63 72.614 21.141 71.073 16.903 C 70.175 14.432 69.876 13.037 67.389 12.028 C 64.035 10.667 60.303 12.557 60.179 17.481 C 60.154 18.524 60.087 19.569 59.983 20.608 C 59.911 21.332 59.919 22.139 59.592 22.749 C 56.952 27.69 53.897 32.348 49.555 35.985 C 47.32 37.857 45.492 40.007 44.116 42.56 C 43.639 43.446 43.13 44.314 42.668 45.208 C 41.839 46.814 40.511 47.78 38.85 48.41 C 38.487 48.548 38.025 49.051 38.014 49.401 C 37.882 53.147 37.637 56.902 37.8 60.639 C 38.082 67.044 39.052 74.387 41.381 79.391 C 43.432 83.798 51.157 83.604 54.599 83.763 C 59.823 84.004 63.615 83.766 68.567 83.456 C 71.573 83.268 74.5 82.781 77.395 81.757 C 81.596 80.271 81.954 78.837 81.183 75.635 C 81.176 75.21 81.497 74.632 81.849 74.376 C 84.894 72.155 86.273 68.049 85.05 64.453 C 84.823 63.789 84.904 63.349 85.313 62.785 Z M 37.48 83.222 C 34.18 72.604 32.365 61.813 33.668 50.657 C 33.789 49.623 33.356 49.289 32.353 49.307 L 24.806 49.587 C 22.331 49.587 19.855 49.566 17.378 49.594 C 14.779 49.621 13.167 51.242 13.037 53.875 C 12.517 64.235 14.117 74.29 17.397 84.101 C 18.519 87.458 21.367 89.019 24.782 88.181 C 28.606 87.245 32.426 86.29 36.248 85.346 C 37.887 84.939 37.976 84.813 37.48 83.222 Z M 28.678 77.195 C 30.519 77.195 32.012 78.688 32.012 80.529 C 32.012 82.371 30.519 83.864 28.678 83.864 C 26.837 83.864 25.344 82.371 25.344 80.529 C 25.344 78.688 26.836 77.195 28.678 77.195 Z')" ></path></g>
<metadata xmlns:d="https://loading.io/stock/" class="ld " style="y:0px;x:0px;webkit-user-select:none;webkit-transform-origin:50px 50px;webkit-animation-duration:1s;webkit-animation-delay:-0.75s;webkit-animation:none 1s ease -0.75s 1 normal none running;user-select:none;transform-origin:50px 50px;transform:none;r:0px;pointer-events:all;direction:ltr;d:none" ><d:name class="ld " style="y:0px;x:0px;webkit-user-select:none;webkit-transform-origin:50px 50px;webkit-animation-duration:1s;webkit-animation-delay:-0.666667s;webkit-animation:none 1s ease -0.666667s 1 normal none running;user-select:none;transform-origin:50px 50px;transform:none;r:0px;pointer-events:all;direction:ltr;d:none" >like</d:name>


<d:tags class="ld " style="y:0px;x:0px;webkit-user-select:none;webkit-transform-origin:50px 50px;webkit-animation-duration:1s;webkit-animation-delay:-0.583333s;webkit-animation:none 1s ease -0.583333s 1 normal none running;user-select:none;transform-origin:50px 50px;transform:none;r:0px;pointer-events:all;direction:ltr;d:none" >thumbs up,good,favorite,support,great,rank,like,map</d:tags>


<d:license class="ld " style="y:0px;x:0px;webkit-user-select:none;webkit-transform-origin:50px 50px;webkit-animation-duration:1s;webkit-animation-delay:-0.5s;webkit-animation:none 1s ease -0.5s 1 normal none running;user-select:none;transform-origin:50px 50px;transform:none;r:0px;pointer-events:all;direction:ltr;d:none" >cc0</d:license>


<d:slug class="ld " style="y:0px;x:0px;webkit-user-select:none;webkit-transform-origin:50px 50px;webkit-animation-duration:1s;webkit-animation-delay:-0.416667s;webkit-animation:none 1s ease -0.416667s 1 normal none running;user-select:none;transform-origin:50px 50px;transform:none;r:0px;pointer-events:all;direction:ltr;d:none" >o9vgjs</d:slug></metadata></g></g></g></g>
<style type="text/css" class="ld " style="y:0px;x:0px;webkit-user-select:none;webkit-transform-origin:50px 50px;webkit-animation-duration:1s;webkit-animation-delay:-0.333333s;webkit-animation:none 1s ease -0.333333s 1 normal none running;user-select:none;transform-origin:50px 50px;transform:none;r:0px;pointer-events:all;direction:ltr;d:none" >@keyframes ld-breath {
  0% {
    -webkit-transform: scale(0.86);
    transform: scale(0.86);
  }
  50% {
    -webkit-transform: scale(1.06);
    transform: scale(1.06);
  }
  100% {
    -webkit-transform: scale(0.86);
    transform: scale(0.86);
  }
}
@-webkit-keyframes ld-breath {
  0% {
    -webkit-transform: scale(0.86);
    transform: scale(0.86);
  }
  50% {
    -webkit-transform: scale(1.06);
    transform: scale(1.06);
  }
  100% {
    -webkit-transform: scale(0.86);
    transform: scale(0.86);
  }
}
.ld.ld-breath {
  -webkit-animation: ld-breath 1s infinite;
  animation: ld-breath 1s infinite;
}</style></svg></svg>